<svg width="200" height="200" viewBox="0 0 200 200" fill="none" xmlns="http://www.w3.org/2000/svg">
  <rect width="200" height="200" rx="40" fill="url(#paint0_linear)" />
  <path d="M100 52C76.804 52 58 70.804 58 94C58 117.196 76.804 136 100 136C123.196 136 142 117.196 142 94C142 70.804 123.196 52 100 52Z" fill="white" fill-opacity="0.2"/>
  <path d="M138 63L131.414 69.5858C138.763 76.935 142 86.7157 142 97C142 107.284 138.763 117.065 131.414 124.414L138 131C147.333 121.667 152 109.667 152 97C152 84.3333 147.333 72.3333 138 63Z" fill="white"/>
  <path d="M63 131L69.5858 124.414C62.2372 117.065 59 107.284 59 97C59 86.7157 62.2372 76.935 69.5858 69.5858L63 63C53.6667 72.3333 49 84.3333 49 97C49 109.667 53.6667 121.667 63 131Z" fill="white"/>
  <path d="M100 76C97.3478 76 94.8043 77.0536 92.9289 78.9289C91.0536 80.8043 90 83.3478 90 86V108C90 110.652 91.0536 113.196 92.9289 115.071C94.8043 116.946 97.3478 118 100 118C102.652 118 105.196 116.946 107.071 115.071C108.946 113.196 110 110.652 110 108V86C110 83.3478 108.946 80.8043 107.071 78.9289C105.196 77.0536 102.652 76 100 76ZM100 114C98.4087 114 96.8826 113.368 95.7574 112.243C94.6321 111.117 94 109.591 94 108V86C94 84.4087 94.6321 82.8826 95.7574 81.7574C96.8826 80.6321 98.4087 80 100 80C101.591 80 103.117 80.6321 104.243 81.7574C105.368 82.8826 106 84.4087 106 86V108C106 109.591 105.368 111.117 104.243 112.243C103.117 113.368 101.591 114 100 114Z" fill="white"/>
  <path d="M82 148H118L123 158H77L82 148Z" fill="white" fill-opacity="0.6"/>
  <path fill-rule="evenodd" clip-rule="evenodd" d="M85 38C82.7909 38 81 39.7909 81 42V46H119V42C119 39.7909 117.209 38 115 38H85ZM127 46V42C127 35.3726 121.627 30 115 30H85C78.3726 30 73 35.3726 73 42V46H67C65.8954 46 65 46.8954 65 48C65 49.1046 65.8954 50 67 50H73H127H133C134.105 50 135 49.1046 135 48C135 46.8954 134.105 46 133 46H127Z" fill="white"/>
  <defs>
    <linearGradient id="paint0_linear" x1="0" y1="0" x2="200" y2="200" gradientUnits="userSpaceOnUse">
      <stop stop-color="#6C63FF"/>
      <stop offset="1" stop-color="#3A0CA3"/>
    </linearGradient>
  </defs>
</svg>
