<svg width="400" height="300" viewBox="0 0 400 300" fill="none" xmlns="http://www.w3.org/2000/svg">
  <rect width="400" height="300" fill="#F3F4F6"/>
  <path d="M200 130C183.431 130 170 143.431 170 160C170 176.569 183.431 190 200 190C216.569 190 230 176.569 230 160C230 143.431 216.569 130 200 130ZM200 180C188.954 180 180 171.046 180 160C180 148.954 188.954 140 200 140C211.046 140 220 148.954 220 160C220 171.046 211.046 180 200 180Z" fill="#D1D5DB"/>
  <path d="M277 120H123C120.791 120 119 121.791 119 124V236C119 238.209 120.791 240 123 240H277C279.209 240 281 238.209 281 236V124C281 121.791 279.209 120 277 120ZM271 230H129V134H271V230Z" fill="#D1D5DB"/>
  <path d="M246 200L232 180L212 210L192 180L154 230H246Z" fill="#D1D5DB"/>
</svg>
