<?xml version="1.0" encoding="UTF-8"?>
<svg width="400" height="400" viewBox="0 0 400 400" fill="none" xmlns="http://www.w3.org/2000/svg">
  <rect width="400" height="400" fill="#F5F3FF"/>
  <path d="M150 100H250V280H150V100Z" fill="#E8D3FF"/>
  <path d="M150 100H250" stroke="#6C63FF" stroke-width="4" stroke-linecap="round"/>
  <path d="M160 120H240" stroke="#6C63FF" stroke-width="2" stroke-linecap="round" stroke-dasharray="5 5"/>
  <path d="M160 140H240" stroke="#6C63FF" stroke-width="2" stroke-linecap="round" stroke-dasharray="5 5"/>
  <path d="M160 160H240" stroke="#6C63FF" stroke-width="2" stroke-linecap="round" stroke-dasharray="5 5"/>
  <path d="M160 180H240" stroke="#6C63FF" stroke-width="2" stroke-linecap="round" stroke-dasharray="5 5"/>
  <path d="M160 200H240" stroke="#6C63FF" stroke-width="2" stroke-linecap="round" stroke-dasharray="5 5"/>
  <path d="M160 220H240" stroke="#6C63FF" stroke-width="2" stroke-linecap="round" stroke-dasharray="5 5"/>
  <path d="M160 240H240" stroke="#6C63FF" stroke-width="2" stroke-linecap="round" stroke-dasharray="5 5"/>
  <path d="M160 260H240" stroke="#6C63FF" stroke-width="2" stroke-linecap="round" stroke-dasharray="5 5"/>
  <circle cx="200" cy="130" r="10" fill="#FF6584"/>
  <circle cx="220" cy="150" r="8" fill="#FF6584"/>
  <circle cx="180" cy="170" r="8" fill="#FF6584"/>
  <circle cx="210" cy="190" r="8" fill="#FF6584"/>
  <circle cx="190" cy="210" r="8" fill="#FF6584"/>
  <circle cx="220" cy="230" r="8" fill="#FF6584"/>
  <circle cx="180" cy="250" r="8" fill="#FF6584"/>
  <text x="200" y="320" text-anchor="middle" font-family="Arial" font-size="16" font-weight="bold" fill="#14142B">Handblock Print Kurta</text>
</svg>
